<?xml version="1.0" standalone="no"?>
<!DOCTYPE svg PUBLIC "-//W3C//DTD SVG 20010904//EN"
 "http://www.w3.org/TR/2001/REC-SVG-20010904/DTD/svg10.dtd">
<svg version="1.0" xmlns="http://www.w3.org/2000/svg"
 width="512.000000pt" height="512.000000pt" viewBox="0 0 512.000000 512.000000"
 preserveAspectRatio="xMidYMid meet">
<metadata>
Created by potrace 1.14, written by Peter Selinger 2001-2017
</metadata>
<g transform="translate(0.000000,512.000000) scale(0.100000,-0.100000)"
fill="#000000" stroke="none">
<path d="M2400 4800 l0 -320 160 0 160 0 0 320 0 320 -160 0 -160 0 0 -320z"/>
<path d="M1350 4817 c-30 -18 -80 -47 -110 -63 -30 -17 -65 -37 -77 -44 l-22
-14 27 -45 c14 -26 45 -77 68 -116 22 -38 52 -90 66 -115 14 -25 56 -98 92
-162 l67 -117 122 71 c67 39 129 76 138 82 14 10 -4 46 -140 283 -86 150 -160
273 -166 273 -5 0 -35 -15 -65 -33z"/>
<path d="M3562 4617 c-72 -127 -143 -250 -156 -272 l-25 -41 138 -80 138 -81
53 91 c30 50 68 116 86 146 18 30 66 114 107 185 l75 130 -44 28 c-24 15 -47
27 -51 27 -3 0 -14 6 -22 14 -9 8 -40 26 -69 41 -29 15 -55 31 -58 36 -19 32
-45 -2 -172 -224z"/>
<path d="M1180 3823 c-108 -39 -186 -125 -211 -233 -5 -19 -9 -273 -9 -565 -1
-579 -3 -608 -58 -726 -79 -169 -222 -296 -391 -349 -83 -25 -123 -29 -338
-30 l-173 0 0 -960 0 -960 480 0 480 0 0 728 0 727 38 25 c78 52 159 117 220
178 l63 63 57 -58 c73 -74 121 -114 200 -166 l62 -41 0 -728 0 -728 960 0 960
0 0 729 0 729 53 32 c28 18 54 35 57 39 3 3 23 20 45 36 22 16 68 58 102 93
l63 63 65 -65 c61 -62 183 -158 233 -185 l22 -12 0 -729 0 -730 480 0 480 0 0
960 0 960 -187 1 c-104 0 -199 2 -213 5 -14 2 -36 6 -50 8 -101 15 -227 85
-319 176 -76 75 -121 147 -159 252 -26 73 -27 75 -29 393 -8 928 -5 844 -33
900 -61 121 -172 187 -307 181 -117 -5 -220 -73 -274 -182 -26 -54 -24 27 -32
-904 -2 -313 -3 -316 -29 -388 -34 -95 -80 -171 -143 -236 -96 -101 -180 -151
-311 -185 -75 -20 -103 -21 -499 -18 l-420 2 -73 27 c-131 48 -236 125 -321
235 -41 54 -96 181 -110 253 -6 32 -10 271 -11 580 0 289 -3 539 -6 555 -17
95 -92 193 -178 234 -64 29 -175 36 -236 14z"/>
<path d="M2420 3504 c-176 -37 -351 -174 -429 -336 -55 -113 -71 -188 -67
-312 5 -166 62 -300 176 -414 79 -79 82 -82 151 -120 49 -27 121 -56 174 -69
49 -12 215 -10 275 3 209 44 404 224 471 434 28 86 34 242 13 330 -50 219
-213 396 -434 470 -82 28 -236 35 -330 14z"/>
</g>
</svg>
